<?xml version="1.0" encoding="UTF-8"?>
<svg width="16px" height="16px" viewBox="0 0 16 16" version="1.1" xmlns="http://www.w3.org/2000/svg" xmlns:xlink="http://www.w3.org/1999/xlink">
    <!-- Generator: Sketch 51.2 (57519) - http://www.bohemiancoding.com/sketch -->
    <title>Pointer</title>
    <desc>Created with Sketch.</desc>
    <defs></defs>
    <g id="Page-1" stroke="none" stroke-width="1" fill="none" fill-rule="evenodd" opacity="0.664899554">
        <g id="Desktop" transform="translate(-504.000000, -505.000000)" fill="#FFFFFF" stroke="#000000">
            <path d="M509.346494,507.975079 C509.344902,507.969531 509.343305,507.963958 509.341702,507.958361 C509.343993,507.966362 509.345919,507.973081 509.347502,507.978598 Z M508.606362,513.868868 C508.602726,513.664573 508.595406,513.37327 508.556126,513.039395 C508.463352,512.25081 508.245065,511.312178 507.997237,510.630651 C507.697492,509.806352 507.441238,508.649313 507.374562,507.72926 C507.277582,506.391066 507.54088,505.5 508.467134,505.5 C509.393528,505.5 509.800102,505.985781 510.13158,507.086243 C510.101806,506.987399 510.398242,508.022662 510.50465,508.341886 C510.609366,508.656032 510.683029,508.998642 510.732553,509.374721 C510.769329,509.653995 510.789719,509.890313 510.803345,510.202501 C511.11873,509.751827 511.696456,509.569401 512.530309,509.569401 C513.119346,509.569401 513.429019,509.873448 513.594104,510.407061 C513.671699,510.105938 513.824553,509.886929 514.076749,509.741319 C514.360211,509.577658 514.565583,509.560456 515.249045,509.567739 C515.36893,509.568993 515.422623,509.569401 515.493948,509.569401 C516.157706,509.569401 516.469228,509.951902 516.623264,510.616626 C516.73636,510.54193 516.87438,510.5 517.030309,510.5 C518.088754,510.5 518.530308,511.282355 518.530309,513.5 C518.530309,513.912573 518.538326,514.260477 518.554516,514.687543 C518.598575,515.849743 518.594842,515.997971 518.448504,516.41007 C518.350829,516.685129 518.19516,516.946865 517.930309,517.3 C516.896949,518.677812 516.799973,518.807114 516.523294,519.17602 C516.512842,519.311372 516.489589,519.467718 516.446199,519.629514 C516.310587,520.135185 516.017079,520.5 515.493948,520.5 C515.11327,520.5 514.865438,520.323106 514.547999,519.965927 C514.517165,519.931234 514.485652,519.89499 514.427785,519.828213 C514.206805,519.574255 514.107155,519.5 514.030309,519.5 C513.948546,519.5 513.828231,519.590782 513.700807,519.779647 C513.602388,519.92552 513.533056,520.076964 513.502331,520.16491 L513.385261,520.5 L509.86091,520.5 L509.726395,520.397035 C509.619372,520.315113 509.435631,520.169417 509.20048,519.974341 C508.809004,519.64958 508.417399,519.304624 508.050567,518.953262 C507.742946,518.658616 507.466037,518.371899 507.227049,518.096533 C506.969602,517.799898 506.75925,517.52006 506.601562,517.257248 C506.428841,516.969379 506.343435,516.842458 505.832489,516.099907 C505.7378,515.962296 505.665861,515.856991 505.596395,515.75397 C504.708645,514.437403 504.353718,513.64481 504.545238,512.878732 C504.901966,511.451821 506.334047,511.008303 507.383862,512.058119 C507.637055,512.311312 507.858354,512.624183 508.134699,513.083686 C508.197917,513.188803 508.409494,513.54952 508.450369,513.61778 C508.509492,513.716513 508.560522,513.798832 508.606362,513.868868 Z M513.710703,514.446887 C513.683036,514.471999 513.626294,514.5 513.530309,514.5 C513.422019,514.5 513.363766,514.466477 513.338655,514.439485 C513.367285,514.480967 513.394002,514.530995 513.420387,514.593325 C513.484299,514.74431 513.530309,514.933174 513.530309,515 L513.530309,517 C513.530309,517.071635 513.485542,517.260355 513.422827,517.409772 C513.393838,517.478837 513.364435,517.532015 513.343199,517.559374 C513.377582,517.528001 513.434324,517.5 513.530309,517.5 C513.638599,517.5 513.696852,517.533523 513.721963,517.560515 C513.693333,517.519033 513.666616,517.469005 513.640231,517.406675 C513.576319,517.25569 513.530309,517.066826 513.530309,517 L513.530309,515 C513.530309,514.928365 513.575076,514.739645 513.637791,514.590228 C513.66678,514.521163 513.696183,514.467985 513.717418,514.440626 Z M513.343199,517.559374 C513.342056,517.560848 513.340935,517.562247 513.33984,517.56357 C513.342629,517.560202 513.345977,517.556687 513.349915,517.553113 Z M513.721963,517.560515 C513.723395,517.562054 513.724719,517.563572 513.725939,517.565061 C513.722342,517.560669 513.718496,517.55551 513.714444,517.549636 Z M511.710703,514.446887 C511.683036,514.471999 511.626294,514.5 511.530309,514.5 C511.422019,514.5 511.363766,514.466477 511.338655,514.439485 C511.367285,514.480967 511.394002,514.530995 511.420387,514.593325 C511.484299,514.74431 511.530309,514.933174 511.530309,515 L511.530309,517 C511.530309,517.071635 511.485542,517.260355 511.422827,517.409772 C511.393838,517.478837 511.364435,517.532015 511.343199,517.559374 C511.377582,517.528001 511.434324,517.5 511.530309,517.5 C511.638599,517.5 511.696852,517.533523 511.721963,517.560515 C511.693333,517.519033 511.666616,517.469005 511.640231,517.406675 C511.576319,517.25569 511.530309,517.066826 511.530309,517 L511.530309,515 C511.530309,514.928365 511.575076,514.739645 511.637791,514.590228 C511.66678,514.521163 511.696183,514.467985 511.717418,514.440626 Z M511.343199,517.559374 C511.342056,517.560848 511.340935,517.562247 511.33984,517.56357 C511.342629,517.560202 511.345977,517.556687 511.349915,517.553113 Z M511.721963,517.560515 C511.723395,517.562054 511.724719,517.563572 511.725939,517.565061 C511.722342,517.560669 511.718496,517.55551 511.714444,517.549636 Z M515.710703,514.446887 C515.683036,514.471999 515.626294,514.5 515.530309,514.5 C515.422019,514.5 515.363766,514.466477 515.338655,514.439485 C515.367285,514.480967 515.394002,514.530995 515.420387,514.593325 C515.484299,514.74431 515.530309,514.933174 515.530309,515 L515.530309,517 C515.530309,517.071635 515.485542,517.260355 515.422827,517.409772 C515.393838,517.478837 515.364435,517.532015 515.343199,517.559374 C515.377582,517.528001 515.434324,517.5 515.530309,517.5 C515.638599,517.5 515.696852,517.533523 515.721963,517.560515 C515.693333,517.519033 515.666616,517.469005 515.640231,517.406675 C515.576319,517.25569 515.530309,517.066826 515.530309,517 L515.530309,515 C515.530309,514.928365 515.575076,514.739645 515.637791,514.590228 C515.66678,514.521163 515.696183,514.467985 515.717418,514.440626 Z M515.343199,517.559374 C515.342056,517.560848 515.340935,517.562247 515.33984,517.56357 C515.342629,517.560202 515.345977,517.556687 515.349915,517.553113 Z M515.721963,517.560515 C515.723395,517.562054 515.724719,517.563572 515.725939,517.565061 C515.722342,517.560669 515.718496,517.55551 515.714444,517.549636 Z" id="Pointer"></path>
        </g>
    </g>
</svg>