<?xml version="1.0" encoding="UTF-8"?>
<svg width="40px" height="36px" viewBox="0 0 40 36" version="1.1" xmlns="http://www.w3.org/2000/svg" xmlns:xlink="http://www.w3.org/1999/xlink">
    <!-- Generator: Sketch 51.2 (57519) - http://www.bohemiancoding.com/sketch -->
    <title>high-volume</title>
    <desc>Created with Sketch.</desc>
    <defs></defs>
    <g id="icon-artboard" stroke="none" stroke-width="1" fill="none" fill-rule="evenodd">
        <g id="iOS-icon-kit" transform="translate(-1794.000000, -923.000000)" fill="#087E8B">
            <g id="Icon-sets">
                <g id="Leisure-Icons" transform="translate(1380.000000, 400.000000)">
                    <g id="SVGs" transform="translate(49.000000, 48.000000)">
                        <path d="M399.083902,475.739188 C402.799775,480.5054 405,486.522637 405,493.063745 C405,499.546666 402.838745,505.514996 399.182705,510.260812 L397.508546,508.990123 C400.939564,504.527587 402.999999,499.021308 402.999999,493.063745 C402.999999,487.040475 400.893863,481.478497 397.394522,476.990093 L399.083902,475.739188 L399.083902,475.739188 Z M392.659573,505.309747 C395.366412,501.910872 396.999998,497.66692 396.999998,493.063744 C396.999998,488.369209 395.300925,484.048298 392.497141,480.616371 L391.048382,481.689108 C393.515571,484.871866 395.000001,488.805818 395.000001,493.063744 C395.000001,497.222976 393.583588,501.073079 391.218351,504.215858 L392.659573,505.309747 L392.659573,505.309747 Z M386.770104,500.839634 C388.859468,498.693287 390.145299,495.768597 390.145299,492.545226 C390.145299,489.497754 388.995974,486.717254 387.104896,484.609071 L385.65495,485.682687 C387.185326,487.555512 388.102564,489.943838 388.102564,492.545226 C388.102564,495.31414 387.063384,497.841667 385.35174,499.763094 L386.770104,500.839634 L386.770104,500.839634 Z M365,488.063745 L365,498.063745 L372,499 L372,487 L365,488.063745 L365,488.063745 Z M372,487.063745 L372,499.063745 L382,506.063745 L382,480.063745 L372,487.063745 L372,487.063745 Z" id="high-volume"></path>
                    </g>
                </g>
            </g>
        </g>
    </g>
</svg>