<?xml version="1.0" encoding="UTF-8"?>
<svg width="232px" height="225px" viewBox="0 0 232 225" version="1.1" xmlns="http://www.w3.org/2000/svg" xmlns:xlink="http://www.w3.org/1999/xlink">
    <!-- Generator: Sketch 51.2 (57519) - http://www.bohemiancoding.com/sketch -->
    <title>vinyl</title>
    <desc>Created with Sketch.</desc>
    <defs></defs>
    <g id="Page-1" stroke="none" stroke-width="1" fill="none" fill-rule="evenodd">
        <g id="Sketch-App-Sources-Preview" transform="translate(-212.000000, -1177.000000)" stroke="#2590D1" stroke-width="3.84769539">
            <g id="blue" transform="translate(214.000000, 1176.000000)">
                <g id="vinyl-" transform="translate(0.000000, 3.000000)">
                    <g id="vinyl">
                        <path d="M104.896858,207.223754 C152.606334,207.223754 191.282507,168.833174 191.282507,121.475994 C191.282507,74.1188133 152.606334,35.7282334 104.896858,35.7282334 C70.8460765,35.7282334 41.3967106,55.2837619 27.3255045,83.6976528 C21.6811613,95.0952367 18.5112103,107.918158 18.5112103,121.475994 C18.5112103,168.833174 57.1873824,207.223754 104.896858,207.223754 Z" id="Oval-19"></path>
                        <path d="M104.896858,123.517607 C106.032798,123.517607 106.95366,122.603545 106.95366,121.475994 C106.95366,120.348442 106.032798,119.43438 104.896858,119.43438 C103.760919,119.43438 102.840057,120.348442 102.840057,121.475994 C102.840057,122.603545 103.760919,123.517607 104.896858,123.517607 Z" id="Oval-21"></path>
                        <path d="M12.3408069,210.286174 C13.4767468,210.286174 14.397608,209.372112 14.397608,208.24456 C14.397608,207.117008 13.4767468,206.202947 12.3408069,206.202947 C11.204867,206.202947 10.2840057,207.117008 10.2840057,208.24456 C10.2840057,209.372112 11.204867,210.286174 12.3408069,210.286174 Z" id="Oval-21-Copy"></path>
                        <path d="M103.868458,151.079387 C120.339586,151.079387 134.720475,137.825496 134.720475,121.475994 C134.720475,105.126491 121.367987,91.8726001 104.896858,91.8726001 C88.4257298,91.8726001 75.0732418,105.126491 75.0732418,121.475994 C75.0732418,137.825496 87.3973292,151.079387 103.868458,151.079387 Z" id="Oval-1-Copy-7"></path>
                        <path d="M189.225705,17.3537134 C172.754577,17.3537134 159.402089,30.607604 159.402089,46.9571067" id="Oval-1-Copy-9" stroke-dasharray="10"></path>
                        <path d="M159.402089,42.8738801 L159.402089,144.460226" id="Line" stroke-linecap="square" stroke-dasharray="10"></path>
                        <path d="M208.765316,36.7490401 C218.988775,36.7490401 227.276527,28.5224872 227.276527,18.37452 C227.276527,12.6355184 224.625883,7.51103622 220.473505,4.14149788 C217.283456,1.5528632 213.207081,0 208.765316,0 C198.541857,0 190.254106,8.22655283 190.254106,18.37452 C190.254106,28.5224872 198.541857,36.7490401 208.765316,36.7490401 Z" id="Oval-4-Copy-7"></path>
                        <path d="M129.578472,181.703587 L129.578472,181.703587 C146.049601,181.703587 159.402089,168.449696 159.402089,152.100194" id="Oval-1-Copy-8" stroke-dasharray="10"></path>
                        <path d="M116.209265,193.953267 C123.024904,193.953267 128.550072,188.468898 128.550072,181.703587 C128.550072,177.877586 126.782976,174.461264 124.014724,172.214906 C121.888025,170.489149 119.170441,169.453907 116.209265,169.453907 C109.393625,169.453907 103.868458,174.938275 103.868458,181.703587 C103.868458,188.468898 109.393625,193.953267 116.209265,193.953267 Z" id="Oval-4-Copy-10"></path>
                        <path d="M12.3408069,220.49424 C19.1564463,220.49424 24.6816137,215.009872 24.6816137,208.24456 C24.6816137,204.418559 22.9145182,201.002238 20.1462659,198.755879 C18.0195669,197.030122 15.3019831,195.99488 12.3408069,195.99488 C5.52516744,195.99488 0,201.479249 0,208.24456 C0,215.009872 5.52516744,220.49424 12.3408069,220.49424 Z" id="Oval-4-Copy-13"></path>
                        <path d="M227.033898,17.8167614 L192.200608,17.8167614" id="Line" stroke-linecap="square"></path>
                    </g>
                </g>
            </g>
        </g>
    </g>
</svg>